HIERARCHY
ROOT Hips
{
	OFFSET 0.053599 88.859886 3.107447
	CHANNELS 6 Xposition Yposition Zposition Zrotation Yrotation Xrotation 
	JOINT Spine
	{
		OFFSET -0.000000 8.814246 -2.080107
		CHANNELS 3 Zrotation Yrotation Xrotation
		JOINT Spine1
		{
			OFFSET 0.000000 8.844141 0.000000
			CHANNELS 3 Zrotation Yrotation Xrotation
			JOINT Spine2
			{
				OFFSET -0.000000 11.682268 0.000000
				CHANNELS 3 Zrotation Yrotation Xrotation
				JOINT Spine3
				{
					OFFSET 0.000000 11.746700 0.000000
					CHANNELS 3 Zrotation Yrotation Xrotation
					JOINT Neck
					{
						OFFSET -0.000000 17.658264 -0.000000
						CHANNELS 3 Zrotation Yrotation Xrotation
						JOINT Neck1
						{
							OFFSET -0.000000 5.101515 -0.000000
							CHANNELS 3 Zrotation Yrotation Xrotation
							JOINT Head
							{
								OFFSET 0.000000 5.101515 0.000000
								CHANNELS 3 Zrotation Yrotation Xrotation
								JOINT HeadEnd
								{
									OFFSET 0.000000 11.655085 0.000000
									CHANNELS 3 Zrotation Yrotation Xrotation
									End Site
									{
										OFFSET 0.000000 0.000000 0.000000
									}
								}
							}
						}
					}
					JOINT RightShoulder
					{
						OFFSET -2.625389 11.175210 0.000000
						CHANNELS 3 Zrotation Yrotation Xrotation
						JOINT RightArm
						{
							OFFSET -0.000000 10.434715 -0.000000
							CHANNELS 3 Zrotation Yrotation Xrotation
							JOINT RightForeArm
							{
								OFFSET -0.000000 29.628420 0.000000
								CHANNELS 3 Zrotation Yrotation Xrotation
								JOINT RightHand
								{
									OFFSET -0.000000 22.857611 0.000000
									CHANNELS 3 Zrotation Yrotation Xrotation
									JOINT RightHandThumb1
									{
										OFFSET -2.867323 3.959563 2.944291
										CHANNELS 3 Zrotation Yrotation Xrotation
										JOINT RightHandThumb2
										{
											OFFSET 0.000000 3.350399 0.000000
											CHANNELS 3 Zrotation Yrotation Xrotation
											JOINT RightHandThumb3
											{
												OFFSET 0.000000 3.756509 -0.000000
												CHANNELS 3 Zrotation Yrotation Xrotation
												JOINT RightHandThumb4
												{
													OFFSET 0.000000 3.147345 0.000000
													CHANNELS 3 Zrotation Yrotation Xrotation
													End Site
													{
														OFFSET 0.000000 0.000000 0.000000
													}
												}
											}
										}
									}
									JOINT RightHandIndex1
									{
										OFFSET -0.086752 10.030893 2.345280
										CHANNELS 3 Zrotation Yrotation Xrotation
										JOINT RightHandIndex2
										{
											OFFSET -0.000000 4.061090 0.000000
											CHANNELS 3 Zrotation Yrotation Xrotation
											JOINT RightHandIndex3
											{
												OFFSET -0.000000 3.248873 0.000000
												CHANNELS 3 Zrotation Yrotation Xrotation
												JOINT RightHandIndex4
												{
													OFFSET 0.000000 2.639709 -0.000000
													CHANNELS 3 Zrotation Yrotation Xrotation
													End Site
													{
														OFFSET 0.000000 0.000000 0.000000
													}
												}
											}
										}
									}
									JOINT RightHandMiddle1
									{
										OFFSET 0.104102 9.502952 0.006768
										CHANNELS 3 Zrotation Yrotation Xrotation
										JOINT RightHandMiddle2
										{
											OFFSET 0.000000 4.568727 0.000000
											CHANNELS 3 Zrotation Yrotation Xrotation
											JOINT RightHandMiddle3
											{
												OFFSET 0.000000 3.654981 -0.000000
												CHANNELS 3 Zrotation Yrotation Xrotation
												JOINT RightHandMiddle4
												{
													OFFSET -0.000000 2.741236 -0.000000
													CHANNELS 3 Zrotation Yrotation Xrotation
													End Site
													{
														OFFSET 0.000000 0.000000 0.000000
													}
												}
											}
										}
									}
									JOINT RightHandRing1
									{
										OFFSET 0.086752 8.921708 -2.267442
										CHANNELS 3 Zrotation Yrotation Xrotation
										JOINT RightHandRing2
										{
											OFFSET -0.000000 4.061090 0.000000
											CHANNELS 3 Zrotation Yrotation Xrotation
											JOINT RightHandRing3
											{
												OFFSET 0.000000 3.654981 -0.000000
												CHANNELS 3 Zrotation Yrotation Xrotation
												JOINT RightHandRing4
												{
													OFFSET 0.000000 2.741236 -0.000000
													CHANNELS 3 Zrotation Yrotation Xrotation
													End Site
													{
														OFFSET 0.000000 0.000000 0.000000
													}
												}
											}
										}
									}
									JOINT RightHandPinky1
									{
										OFFSET -0.173504 7.976997 -4.467199
										CHANNELS 3 Zrotation Yrotation Xrotation
										JOINT RightHandPinky2
										{
											OFFSET 0.000000 3.350399 -0.000000
											CHANNELS 3 Zrotation Yrotation Xrotation
											JOINT RightHandPinky3
											{
												OFFSET -0.000000 2.842763 0.000000
												CHANNELS 3 Zrotation Yrotation Xrotation
												JOINT RightHandPinky4
												{
													OFFSET -0.000000 2.639709 0.000000
													CHANNELS 3 Zrotation Yrotation Xrotation
													End Site
													{
														OFFSET 0.000000 0.000000 0.000000
													}
												}
											}
										}
									}
									JOINT RightForeArmEnd
									{
										OFFSET 0.000000 0.000000 0.000000
										CHANNELS 3 Zrotation Yrotation Xrotation
										End Site
										{
											OFFSET 0.000000 0.000000 0.000000
										}
									}
								}
								JOINT RightArmEnd
								{
									OFFSET 0.000000 0.000000 0.000000
									CHANNELS 3 Zrotation Yrotation Xrotation
									End Site
									{
										OFFSET 0.000000 0.000000 0.000000
									}
								}
							}
						}
					}
					JOINT LeftShoulder
					{
						OFFSET 2.625389 11.175210 0.000000
						CHANNELS 3 Zrotation Yrotation Xrotation
						JOINT LeftArm
						{
							OFFSET 0.000000 10.813635 -0.000000
							CHANNELS 3 Zrotation Yrotation Xrotation
							JOINT LeftForeArm
							{
								OFFSET 0.000000 28.724781 0.000000
								CHANNELS 3 Zrotation Yrotation Xrotation
								JOINT LeftHand
								{
									OFFSET 0.644384 25.716167 -0.328871
									CHANNELS 3 Zrotation Yrotation Xrotation
									JOINT LeftHandThumb1
									{
										OFFSET 2.867323 3.959563 2.944291
										CHANNELS 3 Zrotation Yrotation Xrotation
										JOINT LeftHandThumb2
										{
											OFFSET 0.000000 3.350399 0.000000
											CHANNELS 3 Zrotation Yrotation Xrotation
											JOINT LeftHandThumb3
											{
												OFFSET -0.000000 3.756509 0.000000
												CHANNELS 3 Zrotation Yrotation Xrotation
												JOINT LeftHandThumb4
												{
													OFFSET -0.000000 3.100000 0.000000
													CHANNELS 3 Zrotation Yrotation Xrotation
													End Site
													{
														OFFSET 0.000000 0.000000 0.000000
													}
												}
											}
										}
									}
									JOINT LeftHandIndex1
									{
										OFFSET 0.086752 10.030893 2.345280
										CHANNELS 3 Zrotation Yrotation Xrotation
										JOINT LeftHandIndex2
										{
											OFFSET -0.000000 4.061090 -0.000000
											CHANNELS 3 Zrotation Yrotation Xrotation
											JOINT LeftHandIndex3
											{
												OFFSET 0.000000 3.248873 -0.000000
												CHANNELS 3 Zrotation Yrotation Xrotation
												JOINT LeftHandIndex4
												{
													OFFSET 0.000000 2.639709 -0.000000
													CHANNELS 3 Zrotation Yrotation Xrotation
													End Site
													{
														OFFSET 0.000000 0.000000 0.000000
													}
												}
											}
										}
									}
									JOINT LeftHandMiddle1
									{
										OFFSET -0.104102 9.502952 0.006768
										CHANNELS 3 Zrotation Yrotation Xrotation
										JOINT LeftHandMiddle2
										{
											OFFSET -0.000000 4.568727 -0.000000
											CHANNELS 3 Zrotation Yrotation Xrotation
											JOINT LeftHandMiddle3
											{
												OFFSET 0.000000 3.654981 0.000000
												CHANNELS 3 Zrotation Yrotation Xrotation
												JOINT LeftHandMiddle4
												{
													OFFSET 0.000000 2.741236 -0.000000
													CHANNELS 3 Zrotation Yrotation Xrotation
													End Site
													{
														OFFSET 0.000000 0.000000 0.000000
													}
												}
											}
										}
									}
									JOINT LeftHandRing1
									{
										OFFSET -0.086752 8.921708 -2.267442
										CHANNELS 3 Zrotation Yrotation Xrotation
										JOINT LeftHandRing2
										{
											OFFSET 0.000000 4.061090 0.000000
											CHANNELS 3 Zrotation Yrotation Xrotation
											JOINT LeftHandRing3
											{
												OFFSET 0.000000 3.654981 0.000000
												CHANNELS 3 Zrotation Yrotation Xrotation
												JOINT LeftHandRing4
												{
													OFFSET 0.000000 2.741236 0.000000
													CHANNELS 3 Zrotation Yrotation Xrotation
													End Site
													{
														OFFSET 0.000000 0.000000 0.000000
													}
												}
											}
										}
									}
									JOINT LeftHandPinky1
									{
										OFFSET 0.173504 7.976997 -4.467199
										CHANNELS 3 Zrotation Yrotation Xrotation
										JOINT LeftHandPinky2
										{
											OFFSET -0.000000 3.350399 -0.000000
											CHANNELS 3 Zrotation Yrotation Xrotation
											JOINT LeftHandPinky3
											{
												OFFSET 0.000000 2.842763 0.000000
												CHANNELS 3 Zrotation Yrotation Xrotation
												JOINT LeftHandPinky4
												{
													OFFSET -0.000000 2.639709 -0.000000
													CHANNELS 3 Zrotation Yrotation Xrotation
													End Site
													{
														OFFSET 0.000000 0.000000 0.000000
													}
												}
											}
										}
									}
									JOINT LeftForeArmEnd
									{
										OFFSET 0.000000 0.000000 0.000000
										CHANNELS 3 Zrotation Yrotation Xrotation
										End Site
										{
											OFFSET 0.000000 0.000000 0.000000
										}
									}
								}
								JOINT LeftArmEnd
								{
									OFFSET 0.000000 0.000000 0.000000
									CHANNELS 3 Zrotation Yrotation Xrotation
									End Site
									{
										OFFSET 0.000000 0.000000 0.000000
									}
								}
							}
						}
					}
				}
			}
		}
	}
	JOINT RightUpLeg
	{
		OFFSET -11.289943 0.000000 0.000000
		CHANNELS 3 Zrotation Yrotation Xrotation
		JOINT RightLeg
		{
			OFFSET 0.000000 -38.200325 0.000000
			CHANNELS 3 Zrotation Yrotation Xrotation
			JOINT RightFoot
			{
				OFFSET -0.000000 -39.900856 -0.000000
				CHANNELS 3 Zrotation Yrotation Xrotation
				JOINT RightToeBase
				{
					OFFSET 0.000000 0.000000 15.261641
					CHANNELS 3 Zrotation Yrotation Xrotation
					JOINT RightToeBaseEnd
					{
						OFFSET 0.000000 0.000000 7.370709
						CHANNELS 3 Zrotation Yrotation Xrotation
						End Site
						{
							OFFSET 0.000000 0.000000 0.000000
						}
					}
				}
				JOINT RightLegEnd
				{
					OFFSET 0.000000 0.000000 0.000000
					CHANNELS 3 Zrotation Yrotation Xrotation
					End Site
					{
						OFFSET 0.000000 0.000000 0.000000
					}
				}
			}
			JOINT RightUpLegEnd
			{
				OFFSET 0.000000 0.000000 0.000000
				CHANNELS 3 Zrotation Yrotation Xrotation
				End Site
				{
					OFFSET 0.000000 0.000000 0.000000
				}
			}
		}
	}
	JOINT LeftUpLeg
	{
		OFFSET 11.315661 -0.000000 0.000000
		CHANNELS 3 Zrotation Yrotation Xrotation
		JOINT LeftLeg
		{
			OFFSET -0.000000 -38.200325 -0.000000
			CHANNELS 3 Zrotation Yrotation Xrotation
			JOINT LeftFoot
			{
				OFFSET 0.000000 -39.900856 -0.000000
				CHANNELS 3 Zrotation Yrotation Xrotation
				JOINT LeftToeBase
				{
					OFFSET -0.000000 -0.000000 15.261641
					CHANNELS 3 Zrotation Yrotation Xrotation
					JOINT LeftToeBaseEnd
					{
						OFFSET 0.000000 -0.000000 7.539996
						CHANNELS 3 Zrotation Yrotation Xrotation
						End Site
						{
							OFFSET 0.000000 0.000000 0.000000
						}
					}
				}
				JOINT LeftLegEnd
				{
					OFFSET 0.000000 0.000000 0.000000
					CHANNELS 3 Zrotation Yrotation Xrotation
					End Site
					{
						OFFSET 0.000000 0.000000 0.000000
					}
				}
			}
			JOINT LeftUpLegEnd
			{
				OFFSET 0.000000 0.000000 0.000000
				CHANNELS 3 Zrotation Yrotation Xrotation
				End Site
				{
					OFFSET 0.000000 0.000000 0.000000
				}
			}
		}
	}
}
MOTION
Frames: 4
Frame Time: 0.016667
0.203084 88.808815 2.763927 -0.027894 -0.770240 -10.220371 0.980278 0.047565 6.903232 -0.764715 0.371691 3.329276 -0.023828 -0.257850 3.900240 -1.285335 0.470552 4.958355 2.822444 -0.427809 5.831794 0.468204 0.523541 -2.814906 -0.049139 -0.713373 -20.219126 0.000000 0.000000 0.000000 92.034378 -0.073582 9.765985 69.780281 -22.666306 2.218073 0.148787 17.391291 30.292324 -9.763823 0.821878 -6.063444 15.723733 31.582397 66.305672 -3.526854 -4.242312 -7.850000 -2.492593 -2.775560 -5.265327 0.000000 0.000000 0.000000 -21.023415 -5.368470 12.169082 0.952846 0.496224 0.475602 0.678216 0.057683 0.494314 0.000000 0.000000 0.000000 -20.231190 0.020139 7.095140 0.058729 0.510825 0.155547 0.483900 0.011258 0.147405 0.000000 0.000000 0.000000 -18.629646 7.694962 1.223903 0.363296 -0.999843 -0.324467 0.267605 -0.029404 -0.203982 0.000000 0.000000 0.000000 -17.625111 15.683447 -5.149316 0.518443 -1.955555 -0.963582 0.444967 0.016117 -0.762080 0.000000 0.000000 0.000000 0.000000 0.000000 0.000000 0.000000 0.000000 0.000000 -90.104843 -0.016004 4.853879 -70.886795 15.566181 -6.017223 0.165591 -11.031214 58.281483 20.253172 1.337626 -9.102695 -14.529567 -32.027966 67.566246 2.080961 1.748154 -3.830220 1.347260 1.262891 -2.723807 0.000000 0.000000 0.000000 24.685146 -13.179724 18.803085 -0.469465 0.550186 -0.256680 -0.419627 0.089390 -0.298445 0.000000 0.000000 0.000000 23.893290 -7.717042 12.305162 -0.448277 0.525707 -0.133309 -0.591058 0.038225 -0.100758 0.000000 0.000000 0.000000 21.020933 0.755444 4.417055 -1.493291 -1.044184 0.283014 -1.598533 -0.045452 0.219568 0.000000 0.000000 0.000000 15.826644 10.596873 -3.980272 -2.782210 -2.010261 1.010764 -2.447967 0.016841 0.904537 0.000000 0.000000 0.000000 0.000000 0.000000 0.000000 0.000000 0.000000 0.000000 -0.529238 -9.495614 14.054497 -0.069122 -0.670790 5.011317 -3.264670 -7.920057 17.788528 -0.764526 0.761652 -18.820669 0.000000 0.000000 0.000000 0.000000 0.000000 0.000000 0.000000 0.000000 0.000000 -1.300635 -6.016542 9.061330 0.066990 0.316100 9.765165 3.658425 -0.769552 17.405781 0.306034 -0.443168 -20.847933 0.000000 0.000000 0.000000 0.000000 0.000000 0.000000 0.000000 0.000000 0.000000 
0.201492 88.806892 2.752799 -0.009352 -0.731125 -10.231903 0.984586 0.048221 6.891590 -0.778884 0.375492 3.326336 -0.032514 -0.254874 3.935416 -1.291686 0.474152 4.974218 2.759154 -0.419617 5.927069 0.470411 0.514655 -2.773006 -0.045968 -0.723034 -20.254858 0.000000 0.000000 0.000000 92.045631 -0.085794 9.761272 69.760681 -22.387581 2.266979 0.164699 17.603008 30.496868 -9.911823 1.284715 -6.068661 15.730449 31.577984 66.294830 -3.548188 -4.259047 -7.887366 -2.506827 -2.785446 -5.288355 0.000000 0.000000 0.000000 -21.000002 -5.367734 12.235817 0.933365 0.494835 0.482615 0.657374 0.056663 0.503093 0.000000 0.000000 0.000000 -20.162916 0.012204 7.164910 0.049188 0.511125 0.157659 0.485851 0.010953 0.149849 0.000000 0.000000 0.000000 -18.443544 7.672163 1.299049 0.384957 -1.000039 -0.326186 0.278514 -0.029380 -0.205291 0.000000 0.000000 0.000000 -17.339663 15.664676 -5.086012 0.580226 -1.955569 -0.962334 0.501806 0.015180 -0.758571 0.000000 0.000000 0.000000 0.000000 0.000000 0.000000 0.000000 0.000000 0.000000 -90.144569 0.000278 4.805406 -70.778885 15.293459 -5.956301 0.129237 -11.079365 58.584003 20.390759 0.971791 -9.123604 -14.560781 -32.015156 67.533607 2.131249 1.802828 -3.935245 1.381048 1.300294 -2.795358 0.000000 0.000000 0.000000 24.430927 -13.144006 18.803547 -0.463869 0.547613 -0.266586 -0.413156 0.086961 -0.308042 0.000000 0.000000 0.000000 23.612329 -7.677501 12.313019 -0.451039 0.524928 -0.137096 -0.596287 0.037505 -0.104047 0.000000 0.000000 0.000000 20.645947 0.817121 4.442533 -1.526989 -1.043648 0.288351 -1.631212 -0.044533 0.223962 0.000000 0.000000 0.000000 15.374301 10.682312 -3.967310 -2.864421 -2.006607 1.022385 -2.520408 0.020510 0.915635 0.000000 0.000000 0.000000 0.000000 0.000000 0.000000 0.000000 0.000000 0.000000 -0.542986 -9.526116 14.067569 -0.068761 -0.671200 4.989291 -3.277187 -7.892999 17.784399 -0.763717 0.759434 -18.800905 0.000000 0.000000 0.000000 0.000000 0.000000 0.000000 0.000000 0.000000 0.000000 -1.318828 -6.007465 9.070974 0.066692 0.314865 9.754092 3.667137 -0.792403 17.399174 0.302163 -0.441810 -20.845345 0.000000 0.000000 0.000000 0.000000 0.000000 0.000000 0.000000 0.000000 0.000000 
0.198950 88.803658 2.743606 0.006066 -0.691625 -10.245817 0.990458 0.049103 6.882728 -0.791410 0.377961 3.324391 -0.039884 -0.253857 3.967762 -1.295978 0.476181 4.986017 2.687524 -0.408233 6.013608 0.470885 0.505951 -2.734498 -0.044357 -0.731741 -20.284456 0.000000 0.000000 0.000000 92.062965 -0.097627 9.759545 69.730385 -22.130136 2.340334 0.181253 17.794584 30.634336 -9.963297 1.830877 -6.132981 15.744908 31.570255 66.275055 -3.580476 -4.290986 -7.950214 -2.529149 -2.805299 -5.329668 0.000000 0.000000 0.000000 -20.895458 -5.381664 12.267836 0.914248 0.493564 0.489643 0.636577 0.055761 0.511809 0.000000 0.000000 0.000000 -20.012835 -0.009492 7.209955 0.037019 0.511410 0.159783 0.484506 0.010650 0.152293 0.000000 0.000000 0.000000 -18.174616 7.636184 1.367956 0.400031 -1.000086 -0.328100 0.285083 -0.029194 -0.206652 0.000000 0.000000 0.000000 -16.971979 15.632578 -5.013589 0.635810 -1.955227 -0.961534 0.552187 0.014441 -0.755359 0.000000 0.000000 0.000000 0.000000 0.000000 0.000000 0.000000 0.000000 0.000000 -90.180855 0.017762 4.762910 -70.688332 15.016570 -5.888101 0.089873 -11.128657 58.793385 20.412142 0.513227 -9.244345 -14.596869 -32.000168 67.495087 2.188657 1.867192 -4.057541 1.420195 1.344563 -2.878628 0.000000 0.000000 0.000000 24.120668 -13.101254 18.760592 -0.464465 0.544581 -0.279722 -0.412424 0.084103 -0.320932 0.000000 0.000000 0.000000 23.277288 -7.630004 12.284587 -0.459902 0.523893 -0.142181 -0.607302 0.036579 -0.108400 0.000000 0.000000 0.000000 20.214144 0.888865 4.442993 -1.569441 -1.042765 0.295414 -1.673019 -0.043353 0.229652 0.000000 0.000000 0.000000 14.871340 10.778315 -3.967208 -2.958061 -2.002129 1.038810 -2.605419 0.024817 0.930840 0.000000 0.000000 0.000000 0.000000 0.000000 0.000000 0.000000 0.000000 0.000000 -0.549459 -9.549584 14.078250 -0.068415 -0.671055 4.975813 -3.291393 -7.868950 17.776600 -0.762775 0.757310 -18.778925 0.000000 0.000000 0.000000 0.000000 0.000000 0.000000 0.000000 0.000000 0.000000 -1.331032 -6.000030 9.080579 0.066427 0.314003 9.750974 3.672904 -0.816132 17.386269 0.298888 -0.440498 -20.841534 0.000000 0.000000 0.000000 0.000000 0.000000 0.000000 0.000000 0.000000 0.000000 
0.195674 88.799278 2.736326 0.018340 -0.652318 -10.261360 0.997258 0.050004 6.876668 -0.801067 0.378576 3.324470 -0.046356 -0.253632 3.999112 -1.297681 0.476749 4.993340 2.610986 -0.395701 6.089055 0.469949 0.496919 -2.700903 -0.043721 -0.739618 -20.304932 0.000000 0.000000 0.000000 92.085991 -0.109146 9.762029 69.694832 -21.898689 2.431302 0.198420 17.963619 30.709042 -9.921178 2.444021 -6.250824 15.767241 31.558975 66.245934 -3.624406 -4.338281 -8.039418 -2.559914 -2.835162 -5.390058 0.000000 0.000000 0.000000 -20.707544 -5.409663 12.262767 0.890583 0.492243 0.497195 0.610684 0.054838 0.520930 0.000000 0.000000 0.000000 -19.780207 -0.044847 7.228418 0.018641 0.511572 0.162102 0.475720 0.010319 0.154835 0.000000 0.000000 0.000000 -17.821951 7.586182 1.429550 0.406955 -0.999877 -0.330209 0.285808 -0.028814 -0.208077 0.000000 0.000000 0.000000 -16.523453 15.585816 -4.932602 0.685768 -1.954346 -0.960862 0.596143 0.013945 -0.752297 0.000000 0.000000 0.000000 0.000000 0.000000 0.000000 0.000000 0.000000 0.000000 -90.213486 0.035719 4.728034 -70.619087 14.745471 -5.820429 0.047539 -11.184042 58.926163 20.323849 -0.027805 -9.453027 -14.639125 -31.982821 67.449471 2.254177 1.943967 -4.199829 1.465619 1.397318 -2.976299 0.000000 0.000000 0.000000 23.748829 -13.050723 18.675541 -0.471875 0.541104 -0.295875 -0.418312 0.080825 -0.336932 0.000000 0.000000 0.000000 22.883476 -7.573992 12.221519 -0.475349 0.522591 -0.148415 -0.625188 0.035424 -0.113716 0.000000 0.000000 0.000000 19.724459 0.971004 4.420613 -1.621049 -1.041558 0.303802 -1.723887 -0.041950 0.236390 0.000000 0.000000 0.000000 14.320686 10.885439 -3.977131 -3.063056 -1.997108 1.058741 -2.702688 0.029523 0.949174 0.000000 0.000000 0.000000 0.000000 0.000000 0.000000 0.000000 0.000000 0.000000 -0.549287 -9.566699 14.086090 -0.068084 -0.670226 4.972864 -3.306814 -7.847843 17.765175 -0.761558 0.754879 -18.756594 0.000000 0.000000 0.000000 0.000000 0.000000 0.000000 0.000000 0.000000 0.000000 -1.337917 -5.994106 9.088330 0.066152 0.313321 9.756835 3.677021 -0.839619 17.368828 0.296111 -0.439036 -20.837530 0.000000 0.000000 0.000000 0.000000 0.000000 0.000000 0.000000 0.000000 0.000000 
